<?xml version="1.0" encoding="UTF-8"?>
<svg version="1.1" xmlns="http://www.w3.org/2000/svg" width="800" height="800">

<path d="M0 0 C1.21621536 0.00031723 1.21621536 0.00031723 2.45700073 0.00064087 C17.0539355 0.03844794 31.06673453 1.36876241 45.375 4.375 C46.58857178 4.61597412 46.58857178 4.61597412 47.82666016 4.86181641 C68.97067149 9.15119558 89.62674652 17.14067108 109.89941406 24.40771484 C126.01876435 30.18375956 142.45507775 34.68099176 159.375 37.375 C160.42026855 37.54700928 161.46553711 37.71901855 162.54248047 37.89624023 C166.7597034 38.42305729 170.86130374 38.55409139 175.10546875 38.578125 C176.34197929 38.58857849 176.34197929 38.58857849 177.60346985 38.59924316 C180.25653207 38.61658558 182.90938343 38.62296503 185.5625 38.625 C186.46516602 38.62600708 187.36783203 38.62701416 188.29785156 38.62805176 C201.19008506 38.61829187 213.77357885 38.36344002 226.375 35.375 C227.49656494 35.11686523 228.61812988 34.85873047 229.77368164 34.59277344 C239.76615604 32.23240808 249.47325454 29.1758427 259.22293091 25.97277832 C273.34385816 21.34984085 287.48257885 17.07671058 301.9375 13.625 C302.62141815 13.46060425 303.3053363 13.2962085 304.00997925 13.12683105 C315.47440817 10.39170781 326.16949275 9.12527608 337.9362793 9.02490234 C339.34497672 9.00840365 340.75359253 8.98119367 342.16186523 8.94287109 C354.27365545 8.61686621 365.83489181 10.47581026 375.48046875 18.4765625 C390.18893118 33.21535166 395.87601667 50.74696342 395.87475586 71.13549805 C395.69710016 81.68011764 394.12535766 90.00925171 389.375 99.375 C388.89281006 100.37611816 388.89281006 100.37611816 388.40087891 101.39746094 C383.2149622 112.0309806 376.4267008 120.7662633 368.375 129.375 C367.24964844 130.60476562 367.24964844 130.60476562 366.1015625 131.859375 C359.81560053 138.44911951 352.64437947 143.92685277 345.375 149.375 C344.79556641 149.80989746 344.21613281 150.24479492 343.61914062 150.69287109 C334.88305248 157.20051641 325.83906949 162.98874316 316.375 168.375 C315.55370605 168.84776367 314.73241211 169.32052734 313.88623047 169.80761719 C285.95745847 185.78587644 256.22352966 197.15341777 226.18049622 208.43838501 C191.37405702 221.51449376 157.01046066 235.49931949 123.375 251.375 C122.22837891 251.91479492 121.08175781 252.45458984 119.90039062 253.01074219 C91.47451636 266.41988952 63.99160466 281.08501585 38.375 299.375 C37.22765381 300.19339355 37.22765381 300.19339355 36.05712891 301.02832031 C33.6140025 302.7796973 31.1804117 304.54352791 28.75 306.3125 C27.65957397 307.09911011 27.65957397 307.09911011 26.54711914 307.90161133 C14.0757685 317.0709526 2.74147998 327.56672442 -8.1875 338.5 C-8.77350983 339.08494232 -9.35951965 339.66988464 -9.96328735 340.27255249 C-19.27467302 349.60836042 -27.6769361 359.11375216 -34.625 370.375 C-35.19589355 371.28282227 -35.19589355 371.28282227 -35.77832031 372.20898438 C-42.32124431 382.72625744 -47.6056638 394.06970205 -52.35546875 405.49609375 C-52.75838135 406.46289062 -52.75838135 406.46289062 -53.16943359 407.44921875 C-53.89106774 409.19985822 -54.59649441 410.95715367 -55.30078125 412.71484375 C-56.625 415.375 -56.625 415.375 -59.625 417.375 C-67.15521444 395.58807414 -73.76287464 373.6001458 -80.04342651 351.42391968 C-80.92780202 348.30820959 -81.82192058 345.19530067 -82.71484375 342.08203125 C-95.14878502 298.52574755 -105.76880533 253.82775368 -110.27636719 208.67675781 C-110.52926968 206.28162249 -110.82155509 203.8905411 -111.13769531 201.50292969 C-113.14634294 185.50765512 -112.93047453 169.4395515 -112.88574219 153.34863281 C-112.87434837 149.20718269 -112.88112481 145.06598951 -112.89261246 140.92454815 C-112.99273663 98.57859851 -112.99273663 98.57859851 -108.375 80.5625 C-108.15884033 79.69488037 -107.94268066 78.82726074 -107.7199707 77.93334961 C-100.80306603 51.22497369 -86.34752884 29.32337267 -62.65625 14.90234375 C-43.25101542 3.69488241 -22.14125026 -0.05338236 0 0 Z " fill="#68C7C6" transform="translate(208.625,88.625)"/>
<path d="M0 0 C28.26917092 8.07690598 49.66203615 28.36405248 63.7734375 53.56030273 C71.90488845 68.55574552 77.32425322 84.33738599 81.375 100.875 C81.61379883 101.84775879 81.85259766 102.82051758 82.09863281 103.82275391 C85.47139095 118.41444776 86.37893459 132.77610596 86.3125 147.6875 C86.31100952 148.51839142 86.30951904 149.34928284 86.3079834 150.20535278 C86.26681207 162.99657671 85.73410145 175.46002437 83 188 C82.73316406 189.24652344 82.46632813 190.49304688 82.19140625 191.77734375 C81.26535264 195.56798984 80.17925662 199.28272203 79 203 C78.74653809 203.81597656 78.49307617 204.63195312 78.23193359 205.47265625 C66.82666125 241.68489009 47.33565664 273.13268799 23 302 C22.39492111 302.72734848 22.39492111 302.72734848 21.77761841 303.46939087 C14.35523415 312.38356766 6.5381862 320.77857459 -1.69116211 328.9519043 C-3.57188528 330.82183141 -5.44156819 332.70232638 -7.31054688 334.58398438 C-13.5233664 340.80323539 -19.78596804 346.7195742 -26.69848633 352.16381836 C-28.92990484 353.94407705 -31.03203655 355.81009477 -33.125 357.75 C-78.96230938 398.85676855 -136.7111109 426.96674707 -192.70019531 451.33862305 C-200.956263 454.94430342 -209.03991868 458.78173502 -217 463 C-217.71172363 463.37447266 -218.42344727 463.74894531 -219.15673828 464.13476562 C-263.5995023 487.67065192 -297.29140985 523.26668901 -312.31567383 572.04614258 C-313.27477193 575.34894958 -314.14270572 578.66920091 -315 582 C-315.29390625 583.01578125 -315.5878125 584.0315625 -315.890625 585.078125 C-317.77328916 591.83356697 -318.62713776 598.53336916 -319.1784668 605.50756836 C-319.6525174 610.8033908 -320.7929343 615.1402111 -323 620 C-326.84565677 622.56377118 -328.41030416 622.5099662 -333 622 C-340.84584822 619.12630772 -347.45276734 614.07179995 -354 609 C-355.31097656 607.99839844 -355.31097656 607.99839844 -356.6484375 606.9765625 C-370.50400908 596.0465075 -381.77650133 583.3223989 -392 569 C-392.4429541 568.38044434 -392.8859082 567.76088867 -393.34228516 567.12255859 C-420.62245251 528.52368946 -443.03146611 481.21413533 -435.31640625 432.78125 C-434.49853291 428.73959631 -433.33754013 424.90046641 -432 421 C-431.78569336 420.37174316 -431.57138672 419.74348633 -431.35058594 419.09619141 C-423.77494898 397.41134414 -410.94521332 379.36970339 -395 363 C-394.38576172 362.36529785 -393.77152344 361.7305957 -393.13867188 361.07666016 C-385.15545061 352.8573759 -377.12987211 344.95609304 -368 338 C-366.82416793 337.08339852 -365.64839029 336.16672721 -364.47265625 335.25 C-308.86249441 292.32583992 -241.52203503 266.83061584 -176.51513672 241.98950195 C-152.06824762 232.64010862 -127.85927495 222.76721747 -104 212 C-103.2167334 211.65163086 -102.4334668 211.30326172 -101.62646484 210.94433594 C-64.15451025 194.25883593 -28.78989528 169.9614157 -4 137 C-3.34902344 136.1440625 -2.69804688 135.288125 -2.02734375 134.40625 C15.34026312 110.66920189 23.83181729 80.75493477 19.41796875 51.47265625 C16.36805431 35.43941238 8.30317282 20.39835504 1.21484375 5.8359375 C0 3 0 3 0 0 Z " fill="#5EB3B2" transform="translate(618,89)"/>
<path d="M0 0 C0.886875 0.103125 1.77375 0.20625 2.6875 0.3125 C1.64663896 6.27379503 0.24861487 12.03655479 -1.484375 17.83203125 C-1.80939247 18.92774445 -1.80939247 18.92774445 -2.14097595 20.04559326 C-4.74048735 28.78964862 -7.38053099 37.52164655 -10.02416992 46.25244141 C-10.87818461 49.07301791 -11.7311601 51.89390712 -12.58398438 54.71484375 C-13.92888309 59.16213433 -15.27742049 63.6083097 -16.62774658 68.05395508 C-17.20767143 69.96674044 -17.78370873 71.88070377 -18.35888672 73.79492188 C-29.56666656 110.8085999 -42.9910654 146.71076039 -60.3125 181.3125 C-60.98249023 182.66432373 -60.98249023 182.66432373 -61.66601562 184.04345703 C-80.25188256 221.37351495 -109.97864318 274.9682614 -150.3125 292.3125 C-151.04597656 292.63089844 -151.77945313 292.94929688 -152.53515625 293.27734375 C-156.17041997 294.7518339 -159.38621391 295.98557761 -163.3125 295.3125 C-166.61957339 292.85940505 -167.04007324 290.18110046 -167.8125 286.25 C-168.06257813 284.99445313 -168.31265625 283.73890625 -168.5703125 282.4453125 C-169.21950637 278.92617585 -169.78237778 275.39642438 -170.33520508 271.86108398 C-176.62076799 231.96540089 -194.15112449 198.64439555 -223.07348633 170.53686523 C-229.07163762 164.69745867 -229.07163762 164.69745867 -229.8125 160.4375 C-229.21764629 156.71966434 -227.93962344 155.79041689 -225.05801392 153.52371216 C-222.31986986 151.62371391 -219.43148169 150.30807915 -216.38671875 148.96484375 C-215.73091324 148.6718338 -215.07510773 148.37882385 -214.39942932 148.07693481 C-212.99736826 147.45139909 -211.5934574 146.82999546 -210.18786621 146.21243286 C-206.44752595 144.5670734 -202.72339298 142.88557263 -198.99609375 141.2109375 C-198.24945465 140.87657181 -197.50281555 140.54220612 -196.73355103 140.19770813 C-169.18095161 127.85463849 -142.54197032 113.9274453 -117.3125 97.3125 C-115.81654566 96.34093114 -114.32045052 95.36957906 -112.82421875 94.3984375 C-96.52962493 83.74976978 -81.01782505 72.14265826 -66.03173828 59.72753906 C-64.50078888 58.46747335 -62.95269353 57.22830531 -61.40234375 55.9921875 C-54.57430674 50.54182511 -48.22708503 44.65291474 -41.87890625 38.66015625 C-39.0268134 35.97022504 -36.12659784 33.34500834 -33.1875 30.75 C-24.33456021 22.82817074 -16.01280638 14.35662716 -8.3125 5.3125 C-4.10557396 0.3873183 -4.10557396 0.3873183 0 0 Z " fill="#5EB3B2" transform="translate(668.3125,415.6875)"/>
<path d="M0 0 C0.33 0.66 0.66 1.32 1 2 C-0.2060791 2.30067383 -0.2060791 2.30067383 -1.43652344 2.60742188 C-47.10297838 14.09895205 -88.05685521 33.17114179 -113.72802734 74.85791016 C-119.63933824 84.81296617 -124.97809835 95.10362871 -129.0625 105.9453125 C-130 108 -130 108 -132 109 C-133.2552983 77.47806497 -122.35457774 44.86476949 -100.83203125 21.50390625 C-87.34955663 7.34293047 -71.02339386 -2.25085936 -52 -7 C-51.2575 -7.19078125 -50.515 -7.3815625 -49.75 -7.578125 C-33.31451675 -10.09947754 -14.76081078 -7.96615185 0 0 Z " fill="#F5FAFA" transform="translate(251,119)"/>
</svg>
