<svg xmlns="http://www.w3.org/2000/svg" viewBox="0 0 120 40" fill="none">
  <!-- Dente estilizado -->
  <path d="M14 6C11 6 8 8 7 11C6 14 6.5 18 8 21C9 23.5 9.5 27 10 30C10.3 32 11.5 34 13 34C14.5 34 15 32 15.5 30C16 28 16.5 26 18 26C19.5 26 20 28 20.5 30C21 32 21.5 34 23 34C24.5 34 25.7 32 26 30C26.5 27 27 23.5 28 21C29.5 18 30 14 29 11C28 8 25 6 22 6C20 6 18.5 7 18 8C17.5 7 16 6 14 6Z" fill="#3DBDBD"/>
  <!-- Reflexo brilho dente -->
  <path d="M11 10C10 12 9.5 15 10.5 18" stroke="white" stroke-width="1.5" stroke-linecap="round" opacity="0.6"/>
  <!-- Texto LCR -->
  <text x="36" y="26" font-family="'Segoe UI', Arial, sans-serif" font-weight="700" font-size="18" fill="#3DBDBD" letter-spacing="1">LCR</text>
  <!-- Subtexto -->
  <text x="36" y="34" font-family="'Segoe UI', Arial, sans-serif" font-weight="400" font-size="7" fill="#2E9D9D" letter-spacing="1.5">ODONTOLOGIA</text>
</svg>
